<svg width="16" height="11" viewBox="0 0 16 11" fill="none" xmlns="http://www.w3.org/2000/svg">
<g clip-path="url(#clip0_5_45)">
<path fill-rule="evenodd" clip-rule="evenodd" d="M2.66671 2.75C2.31309 2.75 1.97395 2.84658 1.7239 3.01849C1.47385 3.19039 1.33337 3.42355 1.33337 3.66667V7.33333C1.33337 7.57645 1.47385 7.80961 1.7239 7.98151C1.97395 8.15342 2.31309 8.25 2.66671 8.25H12C12.3537 8.25 12.6928 8.15342 12.9429 7.98151C13.1929 7.80961 13.3334 7.57645 13.3334 7.33333V6.875C13.687 6.875 14.0261 6.77842 14.2762 6.60651C14.5262 6.43461 14.6667 6.20145 14.6667 5.95833V5.04167C14.6667 4.79855 14.5262 4.56539 14.2762 4.39349C14.0261 4.22158 13.687 4.125 13.3334 4.125V3.66667C13.3334 3.42355 13.1929 3.19039 12.9429 3.01849C12.6928 2.84658 12.3537 2.75 12 2.75H2.66671ZM7.33337 7.33333L7.33337 3.66667H12V7.33333H7.33337Z" fill="#FFFEFE"/>
</g>
<defs>
<clipPath id="clip0_5_45">
<rect width="16" height="11" fill="white"/>
</clipPath>
</defs>
</svg>
