<svg width="8" height="8" viewBox="0 0 8 8" fill="none" xmlns="http://www.w3.org/2000/svg">
<path d="M4 7.00001C3.76667 7.00001 3.56944 6.91945 3.40833 6.75834C3.24722 6.59723 3.16667 6.40001 3.16667 6.16668C3.16667 5.93334 3.24722 5.73612 3.40833 5.57501C3.56944 5.4139 3.76667 5.33334 4 5.33334C4.23333 5.33334 4.43056 5.4139 4.59167 5.57501C4.75278 5.73612 4.83333 5.93334 4.83333 6.16668C4.83333 6.40001 4.75278 6.59723 4.59167 6.75834C4.43056 6.91945 4.23333 7.00001 4 7.00001ZM2.11667 5.11668L1.41667 4.40001C1.74444 4.07223 2.12922 3.81257 2.571 3.62101C3.01278 3.42945 3.48911 3.33357 4 3.33334C4.51111 3.33334 4.98756 3.43057 5.42933 3.62501C5.87111 3.81945 6.25578 4.08334 6.58333 4.41668L5.88333 5.11668C5.63889 4.87223 5.35556 4.68057 5.03333 4.54168C4.71111 4.40279 4.36667 4.33334 4 4.33334C3.63333 4.33334 3.28889 4.40279 2.96667 4.54168C2.64444 4.68057 2.36111 4.87223 2.11667 5.11668ZM0.7 3.70001L0 3.00001C0.511111 2.47779 1.10833 2.06945 1.79167 1.77501C2.475 1.48057 3.21111 1.33334 4 1.33334C4.78889 1.33334 5.525 1.48057 6.20833 1.77501C6.89167 2.06945 7.48889 2.47779 8 3.00001L7.3 3.70001C6.87222 3.27223 6.37644 2.93757 5.81267 2.69601C5.24889 2.45445 4.64467 2.33357 4 2.33334C3.35556 2.33334 2.75144 2.45423 2.18767 2.69601C1.62389 2.93779 1.128 3.27245 0.7 3.70001Z" fill="#FDFAFA"/>
</svg>
