<svg width="14" height="14" viewBox="0 0 14 14" fill="none" xmlns="http://www.w3.org/2000/svg">
<path d="M1.74994 4.8125C1.74988 4.30488 1.87599 3.80522 2.11694 3.35844C2.35789 2.91166 2.70611 2.53177 3.1303 2.25296C3.55448 1.97414 4.04132 1.80514 4.54702 1.76114C5.05272 1.71715 5.56143 1.79955 6.02738 2.00092C6.49334 2.2023 6.90193 2.51634 7.21642 2.9148C7.5309 3.31327 7.7414 3.78365 7.829 4.28364C7.91659 4.78364 7.87853 5.29757 7.71824 5.77921C7.55794 6.26085 7.28044 6.69509 6.91069 7.04287C7.6079 7.3812 8.21324 7.88266 8.67538 8.50474C9.13752 9.12682 9.44284 9.85117 9.56544 10.6164C9.57894 10.7015 9.57554 10.7885 9.55543 10.8723C9.53532 10.9562 9.49889 11.0352 9.44823 11.105C9.39757 11.1747 9.33367 11.2338 9.26017 11.2789C9.18668 11.3239 9.10502 11.3541 9.01988 11.3676C8.93473 11.3811 8.84776 11.3777 8.76393 11.3575C8.6801 11.3374 8.60105 11.301 8.53129 11.2504C8.46154 11.1997 8.40245 11.1358 8.35739 11.0623C8.31233 10.9888 8.28219 10.9071 8.26869 10.822C8.13745 9.99977 7.71738 9.25126 7.08391 8.71088C6.45044 8.1705 5.64508 7.87366 4.81244 7.87366C3.9798 7.87366 3.17444 8.1705 2.54097 8.71088C1.9075 9.25126 1.48743 9.99977 1.35619 10.822C1.34263 10.9071 1.31243 10.9888 1.26732 11.0623C1.22221 11.1357 1.16307 11.1996 1.09328 11.2502C1.02348 11.3008 0.944399 11.3372 0.860546 11.3573C0.776693 11.3773 0.68971 11.3807 0.604564 11.3671C0.519418 11.3536 0.437777 11.3234 0.364301 11.2783C0.290825 11.2331 0.226954 11.174 0.176335 11.1042C0.125715 11.0344 0.0893386 10.9553 0.0692816 10.8715C0.0492246 10.7876 0.0458801 10.7006 0.0594391 10.6155C0.182232 9.85059 0.487642 9.12656 0.94978 8.50479C1.41192 7.88302 2.01716 7.38185 2.71419 7.04375C2.4094 6.75756 2.16657 6.41188 2.00072 6.0281C1.83486 5.64432 1.74951 5.23058 1.74994 4.8125ZM9.62494 3.5C10.1333 3.50035 10.6307 3.64828 11.0566 3.92581C11.4826 4.20335 11.8188 4.59857 12.0245 5.06349C12.2302 5.52841 12.2965 6.04304 12.2153 6.54491C12.1342 7.04678 11.9091 7.51431 11.5674 7.89075C12.1 8.15516 12.5733 8.52516 12.9584 8.97824C13.3434 9.43131 13.6323 9.958 13.8074 10.5262C13.8421 10.6366 13.847 10.7541 13.8216 10.8669C13.7962 10.9797 13.7414 11.0838 13.6627 11.1685C13.5841 11.2533 13.4844 11.3158 13.3738 11.3496C13.2632 11.3834 13.1457 11.3873 13.0331 11.361C12.9206 11.3348 12.8169 11.2794 12.7326 11.2005C12.6483 11.1215 12.5862 11.0218 12.5527 10.9112C12.3959 10.4039 12.1101 9.94599 11.7233 9.58219C11.3365 9.2184 10.8619 8.9612 10.3459 8.83575C10.2026 8.80115 10.0752 8.71933 9.98406 8.60345C9.89295 8.48758 9.8435 8.3444 9.84369 8.197V7.889C9.84361 7.76682 9.87764 7.64704 9.94195 7.54316C10.0063 7.43928 10.0983 7.35541 10.2077 7.301C10.473 7.16953 10.686 6.95224 10.8122 6.68443C10.9384 6.41661 10.9703 6.11399 10.9028 5.82573C10.8353 5.53748 10.6723 5.28051 10.4403 5.09656C10.2084 4.91262 9.921 4.81251 9.62494 4.8125C9.45089 4.8125 9.28397 4.74336 9.1609 4.62029C9.03783 4.49721 8.96869 4.33029 8.96869 4.15625C8.96869 3.9822 9.03783 3.81528 9.1609 3.69221C9.28397 3.56914 9.45089 3.5 9.62494 3.5ZM4.81244 3.0625C4.57939 3.05723 4.34764 3.09857 4.13079 3.1841C3.91394 3.26962 3.71637 3.39761 3.54966 3.56055C3.38296 3.72349 3.25049 3.91809 3.16002 4.13292C3.06956 4.34776 3.02293 4.57851 3.02288 4.81161C3.02282 5.04472 3.06933 5.27549 3.15969 5.49037C3.25004 5.70525 3.38241 5.89992 3.54904 6.06294C3.71566 6.22596 3.91317 6.35404 4.12998 6.43968C4.34678 6.52532 4.57852 6.56677 4.81156 6.56162C5.26881 6.55151 5.70392 6.3628 6.02376 6.03589C6.34361 5.70897 6.52276 5.26984 6.52288 4.81249C6.52299 4.35513 6.34405 3.91591 6.02437 3.58884C5.70469 3.26176 5.26968 3.07284 4.81244 3.0625Z" fill="#FAF9F9"/>
</svg>
