<svg width="17" height="16" viewBox="0 0 17 16" fill="none" xmlns="http://www.w3.org/2000/svg">
<path d="M8.84669 3.45694C8.74985 3.45694 8.65695 3.41854 8.58836 3.35015C8.51978 3.28177 8.48111 3.18899 8.48083 3.09214C8.48083 2.41347 8.75043 1.76259 9.23032 1.2827C9.71022 0.802804 10.3611 0.533203 11.0398 0.533203C11.2424 0.533203 11.4046 0.69747 11.4046 0.89907C11.404 1.577 11.1344 2.22701 10.6551 2.70638C10.1757 3.18575 9.52569 3.45531 8.84776 3.45587L8.84669 3.45694ZM14.1832 11.154C14.324 11.2596 14.3699 11.4527 14.2899 11.6095C13.0046 14.1844 11.9774 15.4665 11.0398 15.4665C10.6035 15.4665 10.1747 15.3257 9.75656 15.0505C9.45788 14.8538 9.10975 14.7454 8.75219 14.7376C8.39463 14.7299 8.04214 14.8232 7.73523 15.0068C7.22963 15.3097 6.74643 15.4665 6.28883 15.4665C4.90856 15.4665 2.63336 11.2191 2.63336 8.88734C2.63336 6.39987 3.9379 4.5012 5.92296 4.5012C6.8563 4.5012 7.66269 4.63987 8.34003 4.9172C8.62696 5.03667 8.95123 5.02814 9.23176 4.89374C9.78109 4.6292 10.5054 4.5012 11.4056 4.5012C12.5043 4.5012 13.46 5.0484 14.2558 6.10974C14.314 6.18727 14.339 6.28475 14.3254 6.38075C14.3118 6.47675 14.2607 6.56343 14.1832 6.62174C13.2947 7.28734 12.867 8.03614 12.867 8.88734C12.867 9.7396 13.2947 10.4873 14.1832 11.154Z" fill="#F7F5F5" stroke="#F7F5F5"/>
</svg>
