<svg width="15" height="14" viewBox="0 0 15 14" fill="none" xmlns="http://www.w3.org/2000/svg">
<g clip-path="url(#clip0_10_401)">
<path d="M7.03807 6.67432L0.557983 12.8158C0.630754 13.049 0.761525 13.2642 0.940301 13.4448C1.11908 13.6253 1.34112 13.7665 1.58947 13.8575C1.83781 13.9486 2.10587 13.987 2.37317 13.97C2.64047 13.953 2.89992 13.8809 3.13169 13.7592L10.423 10.0028L7.03807 6.67432Z" fill="#EA4335"/>
<path d="M13.5905 5.63028L10.4375 3.99658L6.88843 6.8139L10.452 9.99383L13.581 8.37764C13.8582 8.24635 14.0903 8.04892 14.2523 7.80677C14.4143 7.56462 14.5 7.28698 14.5 7.00394C14.5 6.72089 14.4143 6.44325 14.2523 6.2011C14.0903 5.95895 13.8582 5.76153 13.581 5.63023L13.5905 5.63028Z" fill="#FBBC04"/>
<path d="M0.557956 1.16211C0.518788 1.2931 0.49929 1.42826 0.499988 1.56395V12.4141C0.500394 12.5497 0.519873 12.6847 0.557956 12.8159L7.26018 6.83176L0.557956 1.16211Z" fill="#4285F4"/>
<path d="M7.08636 6.98882L10.4375 3.99673L3.15586 0.222766C2.88189 0.077625 2.5703 0.000760978 2.2528 3.03401e-06C1.46492 -0.00138213 0.772249 0.47165 0.557983 1.15755L7.08636 6.98882Z" fill="#34A853"/>
</g>
<defs>
<clipPath id="clip0_10_401">
<rect width="14" height="14" fill="white" transform="translate(0.5)"/>
</clipPath>
</defs>
</svg>
