<svg width="24" height="24" viewBox="0 0 24 24" fill="none" xmlns="http://www.w3.org/2000/svg">
<g clip-path="url(#clip0_10_391)">
<path d="M4.00004 6.50125V0H2.40005V6.50125C1.71312 6.67868 1.10462 7.07934 0.67018 7.64025C0.235744 8.20116 0 8.89052 0 9.6C0 10.3095 0.235744 10.9988 0.67018 11.5598C1.10462 12.1207 1.71312 12.5213 2.40005 12.6988V24H4.00004V12.6988C4.68697 12.5213 5.29547 12.1207 5.7299 11.5598C6.16434 10.9988 6.40008 10.3095 6.40008 9.6C6.40008 8.89052 6.16434 8.20116 5.7299 7.64025C5.29547 7.07934 4.68697 6.67868 4.00004 6.50125ZM3.20004 11.2C2.88359 11.2 2.57425 11.1062 2.31113 10.9304C2.04802 10.7545 1.84294 10.5047 1.72184 10.2123C1.60074 9.91993 1.56906 9.59823 1.63079 9.28786C1.69253 8.97749 1.84491 8.69239 2.06868 8.46863C2.29244 8.24487 2.57753 8.09248 2.8879 8.03074C3.19827 7.96901 3.51997 8.00069 3.81233 8.12179C4.10469 8.24289 4.35458 8.44797 4.53039 8.71109C4.7062 8.97421 4.80003 9.28355 4.80003 9.6C4.79956 10.0242 4.63084 10.4309 4.33088 10.7308C4.03093 11.0308 3.62424 11.1995 3.20004 11.2ZM12.8 13.7013V0H11.2V13.7013C10.5131 13.8787 9.90458 14.2793 9.47014 14.8402C9.0357 15.4012 8.79996 16.0905 8.79996 16.8C8.79996 17.5095 9.0357 18.1988 9.47014 18.7598C9.90458 19.3207 10.5131 19.7213 11.2 19.8988V24H12.8V19.8988C13.4869 19.7213 14.0954 19.3207 14.5299 18.7598C14.9643 18.1988 15.2 17.5095 15.2 16.8C15.2 16.0905 14.9643 15.4012 14.5299 14.8402C14.0954 14.2793 13.4869 13.8787 12.8 13.7013ZM12 18.4C11.6836 18.4 11.3742 18.3062 11.1111 18.1304C10.848 17.9545 10.6429 17.7047 10.5218 17.4123C10.4007 17.1199 10.369 16.7982 10.4308 16.4879C10.4925 16.1775 10.6449 15.8924 10.8686 15.6686C11.0924 15.4449 11.3775 15.2925 11.6879 15.2307C11.9982 15.169 12.3199 15.2007 12.6123 15.3218C12.9047 15.4429 13.1545 15.648 13.3303 15.9111C13.5062 16.1742 13.6 16.4836 13.6 16.8C13.5995 17.2242 13.4308 17.6309 13.1308 17.9308C12.8309 18.2308 12.4242 18.3995 12 18.4ZM21.6 3.30125V0H20V3.30125C19.313 3.47868 18.7045 3.87934 18.2701 4.44025C17.8357 5.00116 17.5999 5.69052 17.5999 6.4C17.5999 7.10948 17.8357 7.79884 18.2701 8.35975C18.7045 8.92066 19.313 9.32132 20 9.49875V24H21.6V9.49875C22.2869 9.32132 22.8954 8.92066 23.3298 8.35975C23.7643 7.79884 24 7.10948 24 6.4C24 5.69052 23.7643 5.00116 23.3298 4.44025C22.8954 3.87934 22.2869 3.47868 21.6 3.30125ZM20.8 8C20.4835 8 20.1742 7.90616 19.9111 7.73035C19.6479 7.55454 19.4429 7.30466 19.3218 7.01229C19.2007 6.71993 19.169 6.39823 19.2307 6.08786C19.2924 5.77749 19.4448 5.49239 19.6686 5.26863C19.8924 5.04487 20.1774 4.89248 20.4878 4.83074C20.7982 4.76901 21.1199 4.80069 21.4123 4.92179C21.7046 5.04289 21.9545 5.24797 22.1303 5.51109C22.3061 5.77421 22.4 6.08355 22.4 6.4C22.3995 6.8242 22.2308 7.23089 21.9308 7.53085C21.6308 7.8308 21.2242 7.99952 20.8 8Z" fill="#6B0CB2"/>
</g>
<defs>
<clipPath id="clip0_10_391">
<rect width="24" height="24" fill="white"/>
</clipPath>
</defs>
</svg>
