<svg width="24" height="10" viewBox="0 0 24 10" fill="none" xmlns="http://www.w3.org/2000/svg">
<path d="M12.4122 3.18406C12.3985 4.57153 13.3744 5.34574 14.1095 5.80611C14.8647 6.27839 15.1184 6.58129 15.1154 7.0037C15.1098 7.65008 14.513 7.93538 13.9545 7.94647C12.9802 7.96586 12.4136 7.60839 11.9633 7.33803L11.6122 9.44876C12.0641 9.71635 12.9008 9.94972 13.7685 9.95996C15.8052 9.95996 17.1377 8.66791 17.1449 6.66466C17.1529 4.12225 14.4085 3.98153 14.4273 2.84514C14.4338 2.50056 14.6896 2.13285 15.2502 2.03936C15.5277 1.99213 16.2937 1.95598 17.1622 2.46996L17.5031 0.427792C17.0361 0.209238 16.4358 -3.92191e-05 15.6884 -3.92191e-05C13.7714 -3.92191e-05 12.4231 1.3096 12.4122 3.18406ZM20.7786 0.175864C20.4067 0.175864 20.0932 0.454659 19.9534 0.882491L17.044 9.80996H19.0792L19.4843 8.37153H21.9713L22.2062 9.80996H24L22.4347 0.175864H20.7786ZM21.0633 2.77839L21.6506 6.39611H20.0421L21.0633 2.77839ZM9.94462 0.175985L8.34037 9.80984H10.2798L11.8833 0.175744L9.94462 0.175985ZM7.07559 0.175985L5.05697 6.73321L4.24041 1.15767C4.14459 0.535262 3.76622 0.175864 3.34603 0.175864H0.0462188L0 0.455623C0.677437 0.644539 1.44712 0.949238 1.91344 1.27526C2.19881 1.47442 2.28019 1.64852 2.37394 2.12177L3.92053 9.80996H5.97L9.11212 0.175864L7.07559 0.175985Z" fill="url(#paint0_linear_10_379)"/>
<defs>
<linearGradient id="paint0_linear_10_379" x1="1103.38" y1="29.9397" x2="1140.41" y2="-992.438" gradientUnits="userSpaceOnUse">
<stop stop-color="#222357"/>
<stop offset="1" stop-color="#254AA5"/>
</linearGradient>
</defs>
</svg>
