<svg width="1440" height="816" viewBox="0 0 1440 816" fill="none" xmlns="http://www.w3.org/2000/svg">
<path d="M141.087 745.022C85.5135 742.618 0 725.529 0 725.529V745.022C0 745.022 21.2552 752.016 35.1462 755.519C89.8577 769.316 122.807 766.263 179.246 766.516C239.204 766.784 273.14 764.715 332.383 755.519C384.078 747.495 412.451 739.24 462.926 725.529C533.512 706.354 640.666 666.547 640.666 666.547C640.666 666.547 697.485 649.392 734.556 641.055C767.042 633.75 785.201 628.124 818.405 625.56C842.646 623.688 856.359 624.945 880.664 625.56C993.155 628.408 1058.79 632.067 1165.85 666.547C1282.64 704.16 1442 816 1442 816V774.013C1442 774.013 1283.25 660.601 1165.85 625.56C1058.58 593.541 992.464 589.044 880.664 595.57C808.646 599.773 768.711 609.456 698.406 625.56C609.868 645.84 564.283 671.798 476.483 695.038C409.6 712.742 372.275 724.785 303.764 734.526C240.741 743.487 204.69 747.775 141.087 745.022Z" fill="url(#paint0_linear_4020_2)"/>
<path d="M264.134 663.5C80.3885 648 0 563.5 0 563.5V0H1442V676C1442 676 1000.38 520.566 707.019 563.5C557.716 585.351 447.879 679 264.134 663.5Z" fill="#3D2E87" stroke="#3D2E87" stroke-width="2"/>
<defs>
<linearGradient id="paint0_linear_4020_2" x1="0" y1="704.5" x2="1442" y2="704.5" gradientUnits="userSpaceOnUse">
<stop stop-color="#6033B6"/>
<stop offset="1" stop-color="#7027B9"/>
</linearGradient>
</defs>
</svg>
