<svg width="1440" height="876" viewBox="0 0 1440 876" fill="none" xmlns="http://www.w3.org/2000/svg">
<path d="M501.5 45.0837L0 93.0837V831.584C0 831.584 86.0324 801.052 142.5 786.084C287.743 747.584 356 733.584 501.5 733.584C552.38 733.584 601.954 720.4 652.5 714.584C765.398 701.592 830.067 707.679 943.5 714.584C1053.04 721.251 1114.86 726.724 1222.5 748.084C1308.44 765.138 1439.5 805.084 1439.5 805.084V93.0837C1439.5 93.0837 1168.2 12.395 989 1.5837C798.21 -9.92701 501.5 45.0837 501.5 45.0837Z" fill="url(#paint0_linear_4033_2)"/>
<path d="M186 838.586C115.036 861.442 0 876 0 876V737.115L552.5 698H973L1437 793.803C1437 793.803 1326.39 819.957 1259 826.682C1189.28 833.64 1162.5 838.739 1089 826.682C1024.08 816.032 989.615 798.753 925.5 783.032C843.491 762.923 797.874 747.797 714.5 737.115C635.082 726.939 510 728.045 510 728.045L282 801.172C282 801.172 224.135 826.304 186 838.586Z" fill="#EDF1F2"/>
<defs>
<linearGradient id="paint0_linear_4033_2" x1="566.5" y1="-29.5" x2="719.75" y2="831.584" gradientUnits="userSpaceOnUse">
<stop stop-color="#FDFDFE"/>
<stop offset="1" stop-color="#DBE4E6"/>
</linearGradient>
</defs>
</svg>
